<svg width="1440" height="147" viewBox="0 0 1440 147" fill="none" xmlns="http://www.w3.org/2000/svg">
<g clip-path="url(#clip0_1_700)">
<path d="M0 24C0 10.7452 10.7452 0 24 0H1440V123C1440 136.255 1429.25 147 1416 147H0V24Z" fill="#FB6514"/>
<rect width="4866" height="63" transform="translate(-19 84.252) rotate(-2.5)" fill="white"/>
<path d="M-0.322959 131.068C-2.83619 131.177 -5.14829 130.7 -7.25926 129.635C-9.35462 128.569 -11.0316 127.054 -12.2903 125.092C-13.5497 123.114 -14.2336 120.884 -14.3419 118.402L-15.2334 97.9835L-10.8547 97.7924L-9.96737 118.117C-9.85423 120.708 -8.90094 122.84 -7.10749 124.514C-5.29911 126.171 -3.09928 126.943 -0.508 126.83C2.09889 126.716 4.23087 125.755 5.88794 123.946C7.54434 122.122 8.31596 119.915 8.20282 117.323L7.31544 96.999L11.6707 96.8089L12.5621 117.227C12.6705 119.709 12.1836 121.99 11.1015 124.071C10.0186 126.135 8.47214 127.79 6.46204 129.036C4.46755 130.28 2.20588 130.957 -0.322959 131.068ZM48.3851 128.355L42.9293 128.593L31.8189 115.377L21.9259 129.51L16.5404 129.745L28.7153 112.533L15.2832 96.6512L20.7155 96.414L31.6569 109.52L41.3209 95.5143L46.7532 95.2771L34.7564 112.27L48.3851 128.355ZM75.1923 94.0355C78.3456 93.8978 81.2336 94.4911 83.8564 95.8155C86.4791 97.1398 88.5716 99.0348 90.1337 101.5C91.6952 103.95 92.5437 106.728 92.6794 109.835C92.815 112.941 92.2122 115.79 90.8708 118.383C89.5295 120.975 87.6102 123.045 85.1128 124.593C82.6154 126.141 79.7901 126.983 76.6369 127.121L63.8756 127.678L62.4311 94.5926L75.1923 94.0355ZM76.4101 123.002C79.9068 122.849 82.7819 121.535 85.0354 119.06C87.289 116.584 88.3384 113.574 88.1837 110.031C88.0821 107.705 87.4516 105.621 86.292 103.779C85.1473 101.921 83.6071 100.495 81.6712 99.5002C79.751 98.5049 77.6357 98.0577 75.3254 98.1586L67.013 98.5215L68.0977 123.365L76.4101 123.002ZM121.957 112.896C121.967 113.131 121.955 113.741 121.919 114.728L100.869 115.647C101.385 117.783 102.483 119.479 104.165 120.735C105.861 121.974 107.888 122.543 110.245 122.44C111.993 122.363 113.585 121.926 115.02 121.129C116.455 120.315 117.56 119.305 118.336 118.098L121.276 120.41C120.115 122.118 118.572 123.492 116.647 124.53C114.737 125.567 112.611 126.137 110.27 126.239C106.445 126.406 103.207 125.312 100.555 122.957C97.9027 120.601 96.4966 117.59 96.3364 113.921C96.2328 111.548 96.6929 109.37 97.7167 107.386C98.7555 105.386 100.234 103.788 102.153 102.594C104.071 101.4 106.232 100.75 108.636 100.645C111.025 100.541 113.219 101.001 115.218 102.024C117.218 103.047 118.815 104.518 120.009 106.436C121.203 108.339 121.852 110.492 121.957 112.896ZM108.755 104.441C106.632 104.533 104.827 105.277 103.339 106.671C101.851 108.05 100.958 109.794 100.659 111.903L117.494 111.168C117.011 109.062 115.969 107.395 114.367 106.166C112.764 104.923 110.894 104.347 108.755 104.441ZM135.096 125.155C131.147 125.328 127.782 124.192 125.001 121.749L127.166 118.675C129.253 120.632 131.819 121.545 134.863 121.412C136.517 121.34 137.862 120.976 138.897 120.321C139.931 119.65 140.425 118.776 140.378 117.699C140.358 117.246 140.223 116.846 139.973 116.497C139.739 116.132 139.46 115.839 139.137 115.618C138.831 115.397 138.368 115.191 137.75 114.999C137.146 114.79 136.616 114.641 136.158 114.552C135.716 114.446 135.084 114.309 134.264 114.142C133.506 113.987 132.907 113.865 132.465 113.775C132.022 113.669 131.444 113.507 130.731 113.287C130.033 113.068 129.461 112.85 129.013 112.635C128.582 112.419 128.1 112.136 127.569 111.783C127.052 111.415 126.636 111.026 126.321 110.618C126.021 110.193 125.757 109.689 125.528 109.104C125.314 108.504 125.191 107.844 125.16 107.126C125.093 105.596 125.473 104.258 126.298 103.112C127.124 101.965 128.221 101.104 129.587 100.528C130.953 99.9369 132.495 99.6038 134.212 99.5288C137.74 99.3748 140.778 100.36 143.326 102.486L141.14 105.607C139.269 103.937 137.029 103.159 134.423 103.273C132.94 103.338 131.719 103.673 130.76 104.278C129.801 104.883 129.344 105.692 129.388 106.707C129.408 107.175 129.544 107.592 129.794 107.956C130.044 108.305 130.322 108.59 130.629 108.811C130.952 109.032 131.43 109.245 132.065 109.452C132.699 109.643 133.229 109.792 133.656 109.899C134.098 109.989 134.745 110.117 135.597 110.283C136.338 110.423 136.93 110.546 137.372 110.652C137.83 110.741 138.407 110.888 139.104 111.092C139.801 111.296 140.365 111.506 140.797 111.722C141.244 111.921 141.725 112.198 142.241 112.55C142.757 112.903 143.164 113.284 143.464 113.693C143.763 114.103 144.02 114.608 144.234 115.208C144.463 115.792 144.592 116.436 144.623 117.138C144.726 119.495 143.878 121.394 142.08 122.833C140.281 124.256 137.953 125.031 135.096 125.155ZM150.211 94.5137C149.414 94.5484 148.74 94.3198 148.187 93.8279C147.633 93.3203 147.339 92.6763 147.305 91.8958C147.27 91.0996 147.506 90.4324 148.015 89.8941C148.523 89.3558 149.175 89.0693 149.971 89.0345C150.752 89.0004 151.411 89.2297 151.949 89.7224C152.486 90.215 152.772 90.8594 152.807 91.6555C152.841 92.436 152.604 93.1032 152.097 93.6571C151.604 94.1948 150.975 94.4803 150.211 94.5137ZM149.431 123.943L148.364 99.4974L152.485 99.3175L153.552 123.763L149.431 123.943ZM175.222 123.45C177.548 123.349 179.486 123.851 181.035 124.956C182.585 126.061 183.521 127.623 183.844 129.643L179.63 130.929C179.536 129.838 179.029 128.977 178.11 128.345C177.207 127.727 176.061 127.449 174.672 127.509L165.657 127.903C163.628 127.992 161.957 127.525 160.646 126.503C159.35 125.48 158.665 124.111 158.59 122.393C158.539 121.238 158.758 120.15 159.245 119.127C159.747 118.089 160.455 117.292 161.369 116.736C160.264 115.799 159.387 114.679 158.736 113.379C158.1 112.077 157.749 110.661 157.682 109.131C157.55 106.103 158.501 103.536 160.536 101.429C162.586 99.3065 165.204 98.1757 168.388 98.0366C170.558 97.9419 172.579 98.3854 174.452 99.3671C174.629 98.0613 175.201 97.0041 176.167 96.1956C177.132 95.3871 178.357 94.9504 179.84 94.8857L181.713 94.8039L181.881 98.644L180.241 98.7156C179.352 98.7544 178.637 99.0359 178.097 99.5599C177.571 100.068 177.319 100.728 177.338 101.54C179.013 103.359 179.907 105.565 180.02 108.156C180.152 111.169 179.193 113.744 177.144 115.883C175.094 118.005 172.484 119.136 169.315 119.274C167.395 119.358 165.654 119.051 164.09 118.353C163.62 118.686 163.255 119.109 162.996 119.62C162.752 120.116 162.642 120.629 162.665 121.16C162.702 122.018 163.052 122.691 163.715 123.178C164.377 123.666 165.224 123.887 166.254 123.842L175.222 123.45ZM168.56 101.97C166.577 102.057 164.958 102.769 163.703 104.106C162.447 105.428 161.861 107.041 161.944 108.945C162.028 110.865 162.753 112.437 164.12 113.66C165.502 114.866 167.177 115.426 169.144 115.34C171.11 115.255 172.722 114.551 173.978 113.229C175.249 111.891 175.843 110.262 175.759 108.342C175.676 106.438 174.943 104.882 173.561 103.676C172.194 102.453 170.527 101.885 168.56 101.97ZM197.851 96.7503C200.832 96.6201 203.268 97.4208 205.158 99.1526C207.063 100.884 208.082 103.248 208.212 106.245L208.872 121.348L204.751 121.528L204.148 107.713C204.052 105.527 203.328 103.807 201.975 102.552C200.622 101.282 198.86 100.694 196.69 100.789C194.427 100.888 192.645 101.638 191.346 103.04C190.046 104.442 189.445 106.243 189.541 108.444L190.14 122.165L186.019 122.345L184.951 97.9L189.072 97.72L189.235 101.443C191.092 98.4842 193.964 96.92 197.851 96.7503Z" fill="black"/>
<path d="M243.383 87.31L248.615 99.3931L261.108 103.552L249.025 108.784L244.866 121.278L239.634 109.194L227.141 105.035L239.224 99.8032L243.383 87.31Z" fill="#FD853A"/>
<path d="M305.103 117.146L301.545 109.278L285.342 109.985L282.484 118.134L277.777 118.339L289.796 84.6655L295.041 84.4365L309.95 116.934L305.103 117.146ZM286.803 105.84L299.752 105.274L292.556 89.3074L286.803 105.84ZM326.261 91.1436C329.757 90.991 332.73 92.0889 335.179 94.4375C337.627 96.786 338.931 99.7789 339.09 103.416C339.248 107.053 338.211 110.148 335.976 112.701C333.741 115.254 330.876 116.607 327.379 116.76C325.381 116.847 323.543 116.489 321.866 115.687C320.188 114.869 318.792 113.702 317.678 112.186L318.268 125.697L314.147 125.877L312.682 92.323L316.803 92.1431L316.995 96.5451C317.973 94.9384 319.262 93.6622 320.863 92.7165C322.464 91.7552 324.263 91.2309 326.261 91.1436ZM326.433 112.813C328.946 112.703 331.001 111.769 332.598 110.01C334.194 108.251 334.938 106.115 334.828 103.602C334.718 101.089 333.791 99.0258 332.048 97.4128C330.304 95.7999 328.175 95.0482 325.662 95.158C323.164 95.267 321.125 96.2006 319.544 97.9587C317.963 99.7169 317.227 101.853 317.337 104.366C317.447 106.879 318.366 108.942 320.094 110.556C321.822 112.17 323.935 112.922 326.433 112.813ZM356.918 89.8051C360.415 89.6525 363.387 90.7504 365.836 93.099C368.284 95.4475 369.588 98.4404 369.747 102.078C369.905 105.715 368.868 108.81 366.633 111.363C364.399 113.916 361.533 115.269 358.036 115.421C356.038 115.509 354.201 115.151 352.523 114.348C350.845 113.53 349.449 112.363 348.335 110.848L348.925 124.359L344.804 124.538L343.339 90.9845L347.46 90.8046L347.652 95.2066C348.63 93.5999 349.919 92.3237 351.52 91.378C353.121 90.4167 354.92 89.8924 356.918 89.8051ZM357.09 111.475C359.603 111.365 361.658 110.43 363.255 108.672C364.851 106.913 365.595 104.777 365.485 102.264C365.375 99.7504 364.449 97.6873 362.705 96.0743C360.961 94.4613 358.832 93.7097 356.319 93.8194C353.821 93.9285 351.782 94.8621 350.201 96.6202C348.62 98.3784 347.884 100.514 347.994 103.027C348.104 105.541 349.023 107.604 350.751 109.218C352.479 110.831 354.592 111.584 357.09 111.475ZM397.884 79.9463C401.037 79.8087 403.925 80.402 406.548 81.7264C409.17 83.0507 411.263 84.9456 412.825 87.4111C414.387 89.8609 415.235 92.6391 415.371 95.7455C415.506 98.8519 414.903 101.701 413.562 104.293C412.221 106.886 410.301 108.956 407.804 110.504C405.307 112.052 402.481 112.894 399.328 113.032L386.567 113.589L385.122 80.5035L397.884 79.9463ZM399.101 108.913C402.598 108.76 405.473 107.446 407.727 104.97C409.98 102.495 411.03 99.4853 410.875 95.9418C410.773 93.6159 410.143 91.532 408.983 89.6902C407.839 87.8321 406.298 86.4058 404.363 85.4111C402.442 84.4158 400.327 83.9686 398.017 84.0695L389.704 84.4324L390.789 109.276L399.101 108.913ZM444.648 98.8073C444.658 99.0414 444.646 99.6519 444.611 100.639L423.56 101.558C424.076 103.694 425.174 105.39 426.856 106.646C428.552 107.885 430.579 108.454 432.936 108.351C434.684 108.274 436.276 107.837 437.711 107.04C439.146 106.226 440.252 105.216 441.028 104.009L443.967 106.321C442.806 108.029 441.263 109.402 439.338 110.441C437.428 111.478 435.303 112.048 432.961 112.15C429.137 112.317 425.898 111.223 423.246 108.868C420.594 106.512 419.188 103.5 419.028 99.832C418.924 97.4593 419.384 95.2809 420.408 93.2969C421.447 91.2965 422.925 89.6993 424.844 88.5051C426.762 87.3109 428.924 86.6613 431.328 86.5563C433.716 86.4521 435.91 86.9115 437.91 87.9346C439.909 88.9577 441.506 90.4285 442.7 92.347C443.894 94.2499 444.543 96.4033 444.648 98.8073ZM431.446 90.3516C429.323 90.4443 427.518 91.1878 426.031 92.5822C424.543 93.9609 423.649 95.7047 423.35 97.8135L440.186 97.0784C439.703 94.9725 438.66 93.3054 437.058 92.0772C435.456 90.8335 433.585 90.2583 431.446 90.3516ZM457.788 111.066C453.838 111.239 450.473 110.103 447.692 107.659L449.857 104.586C451.944 106.543 454.51 107.456 457.554 107.323C459.209 107.25 460.553 106.887 461.588 106.232C462.623 105.561 463.116 104.687 463.069 103.61C463.049 103.157 462.915 102.756 462.665 102.408C462.43 102.043 462.151 101.75 461.829 101.529C461.522 101.308 461.059 101.101 460.441 100.909C459.838 100.701 459.307 100.552 458.85 100.463C458.407 100.357 457.776 100.22 456.955 100.053C456.198 99.8983 455.598 99.7759 455.156 99.6857C454.714 99.5799 454.136 99.4174 453.422 99.1984C452.724 98.9786 452.152 98.7612 451.705 98.5461C451.273 98.3303 450.791 98.0464 450.26 97.6942C449.743 97.3258 449.328 96.9373 449.013 96.5288C448.712 96.104 448.448 95.5994 448.219 95.0151C448.005 94.4145 447.883 93.7551 447.851 93.0371C447.785 91.5073 448.164 90.1691 448.99 89.0226C449.816 87.8761 450.912 87.015 452.279 86.4392C453.645 85.8478 455.186 85.5146 456.904 85.4397C460.431 85.2856 463.469 86.2712 466.018 88.3965L463.832 91.5182C461.96 89.8483 459.721 89.0702 457.114 89.184C455.631 89.2488 454.41 89.5836 453.451 90.1885C452.492 90.7934 452.035 91.6032 452.079 92.6179C452.1 93.0862 452.235 93.5025 452.486 93.8669C452.735 94.2158 453.014 94.5008 453.321 94.722C453.643 94.9425 454.122 95.1562 454.756 95.3631C455.39 95.5544 455.921 95.7032 456.348 95.8097C456.789 95.8999 457.436 96.0281 458.288 96.1942C459.029 96.3339 459.621 96.4566 460.064 96.5624C460.521 96.6519 461.098 96.7987 461.795 97.0029C462.492 97.2071 463.057 97.417 463.489 97.6328C463.935 97.8322 464.416 98.1084 464.932 98.4612C465.448 98.8141 465.856 99.1951 466.155 99.6043C466.455 100.013 466.711 100.518 466.925 101.119C467.154 101.703 467.284 102.347 467.314 103.049C467.417 105.406 466.57 107.304 464.771 108.744C462.972 110.167 460.644 110.941 457.788 111.066ZM472.902 80.4245C472.106 80.4593 471.431 80.2307 470.878 79.7387C470.324 79.2312 470.03 78.5871 469.996 77.8066C469.961 77.0105 470.198 76.3433 470.706 75.805C471.214 75.2667 471.867 74.9802 472.663 74.9454C473.443 74.9113 474.102 75.1406 474.64 75.6332C475.177 76.1259 475.464 76.7703 475.498 77.5664C475.533 78.3469 475.296 79.0141 474.788 79.568C474.296 80.1056 473.667 80.3912 472.902 80.4245ZM472.122 109.854L471.055 85.4083L475.176 85.2284L476.243 109.674L472.122 109.854ZM497.913 109.361C500.239 109.26 502.177 109.761 503.727 110.867C505.276 111.972 506.212 113.534 506.535 115.553L502.322 116.84C502.227 115.749 501.72 114.888 500.801 114.255C499.899 113.638 498.752 113.36 497.363 113.42L488.348 113.814C486.319 113.902 484.649 113.436 483.337 112.414C482.041 111.391 481.356 110.021 481.281 108.304C481.231 107.149 481.449 106.061 481.936 105.038C482.438 104 483.146 103.203 484.06 102.646C482.956 101.709 482.078 100.59 481.427 99.2894C480.791 97.9878 480.44 96.572 480.373 95.0422C480.241 92.0139 481.193 89.4465 483.228 87.3401C485.278 85.2174 487.895 84.0865 491.079 83.9475C493.249 83.8528 495.27 84.2963 497.143 85.278C497.321 83.9722 497.892 82.915 498.858 82.1065C499.824 81.2979 501.048 80.8613 502.531 80.7966L504.404 80.7148L504.572 84.5549L502.933 84.6264C502.043 84.6653 501.328 84.9467 500.788 85.4708C500.263 85.9786 500.01 86.6386 500.03 87.4511C501.705 89.2704 502.598 91.4757 502.712 94.0669C502.843 97.0797 501.884 99.6552 499.835 101.794C497.785 103.916 495.176 105.047 492.007 105.185C490.087 105.269 488.345 104.962 486.782 104.264C486.312 104.597 485.947 105.02 485.688 105.531C485.443 106.027 485.333 106.54 485.356 107.071C485.394 107.929 485.744 108.602 486.406 109.089C487.069 109.577 487.915 109.798 488.945 109.753L497.913 109.361ZM491.251 87.8813C489.269 87.9678 487.65 88.6797 486.394 90.017C485.138 91.3387 484.552 92.9517 484.635 94.8562C484.719 96.7762 485.444 98.3476 486.811 99.5704C488.194 100.777 489.868 101.337 491.835 101.251C493.802 101.165 495.413 100.462 496.669 99.14C497.94 97.8021 498.534 96.173 498.45 94.253C498.367 92.3486 497.634 90.7931 496.252 89.5866C494.885 88.3638 493.218 87.7954 491.251 87.8813ZM520.542 82.6611C523.524 82.531 525.959 83.3317 527.849 85.0634C529.755 86.7945 530.773 89.1586 530.904 92.1557L531.563 107.259L527.442 107.438L526.839 93.6235C526.744 91.4381 526.019 89.718 524.666 88.4633C523.313 87.193 521.551 86.6052 519.381 86.7C517.118 86.7988 515.336 87.5491 514.037 88.9509C512.738 90.3526 512.136 92.154 512.232 94.3551L512.831 108.076L508.71 108.256L507.643 83.8108L511.764 83.6309L511.926 87.3539C513.783 84.3951 516.655 82.8308 520.542 82.6611Z" fill="black"/>
<path d="M566.076 73.2209L571.308 85.304L583.801 89.4632L571.718 94.6953L567.559 107.189L562.327 95.1054L549.833 90.9462L561.917 85.714L566.076 73.2209Z" fill="#FD853A"/>
<path d="M614.667 70.4816C617.82 70.3439 620.708 70.9373 623.331 72.2616C625.953 73.586 628.046 75.4809 629.608 77.9463C631.169 80.3962 632.018 83.1743 632.154 86.2807C632.289 89.3871 631.686 92.2365 630.345 94.8287C629.004 97.4209 627.084 99.491 624.587 101.039C622.09 102.587 619.264 103.43 616.111 103.567L603.35 104.124L601.905 71.0388L614.667 70.4816ZM615.884 99.4482C619.381 99.2956 622.256 97.9814 624.51 95.5057C626.763 93.0301 627.813 90.0205 627.658 86.477C627.556 84.1511 626.926 82.0673 625.766 80.2255C624.622 78.3674 623.081 76.941 621.145 75.9464C619.225 74.9511 617.11 74.5038 614.8 74.6047L606.487 74.9676L607.572 99.8112L615.884 99.4482ZM657.104 77.2854L661.225 77.1055L662.292 101.551L658.171 101.731L657.979 97.3288C657.001 98.9355 655.705 100.22 654.089 101.182C652.488 102.128 650.688 102.644 648.69 102.731C646.396 102.832 644.287 102.368 642.366 101.342C640.444 100.3 638.909 98.8261 637.762 96.9212C636.631 95 636.013 92.8452 635.908 90.4569C635.804 88.0685 636.232 85.8759 637.193 83.8789C638.169 81.8657 639.569 80.2641 641.394 79.0739C643.218 77.8682 645.277 77.2153 647.572 77.1151C649.57 77.0279 651.408 77.3933 653.086 78.2116C654.779 79.0135 656.182 80.1721 657.296 81.6875L657.104 77.2854ZM649.289 98.717C651.787 98.6079 653.826 97.6744 655.407 95.9162C657.004 94.1574 657.747 92.0214 657.638 89.5081C657.528 86.9949 656.601 84.9318 654.857 83.3188C653.129 81.7052 651.016 80.9529 648.518 81.0619C646.005 81.1717 643.95 82.1059 642.354 83.8648C640.757 85.6236 640.013 87.7596 640.123 90.2728C640.233 92.7861 641.16 94.8492 642.904 96.4621C644.647 98.0751 646.776 98.8267 649.289 98.717ZM676.631 101.511C672.682 101.684 669.317 100.548 666.535 98.1048L668.7 95.0308C670.788 96.9885 673.353 97.9009 676.397 97.768C678.052 97.6958 679.397 97.3321 680.432 96.6769C681.466 96.0062 681.96 95.1323 681.913 94.0552C681.893 93.6025 681.758 93.2017 681.508 92.8529C681.273 92.4878 680.995 92.195 680.672 91.9745C680.365 91.7533 679.903 91.5467 679.284 91.3547C678.681 91.1465 678.151 90.9976 677.693 90.9081C677.251 90.8023 676.619 90.6657 675.798 90.4982C675.041 90.3436 674.441 90.2212 673.999 90.131C673.557 90.0252 672.979 89.8627 672.266 89.6436C671.568 89.4239 670.995 89.2064 670.548 88.9914C670.116 88.7756 669.635 88.4917 669.103 88.1395C668.587 87.7711 668.171 87.3826 667.856 86.9741C667.556 86.5493 667.291 86.0447 667.063 85.4604C666.849 84.8597 666.726 84.2004 666.695 83.4823C666.628 81.9525 667.007 80.6144 667.833 79.4679C668.659 78.3214 669.755 77.4603 671.122 76.8845C672.488 76.2931 674.03 75.9599 675.747 75.8849C679.275 75.7309 682.313 76.7165 684.861 78.8418L682.675 81.9635C680.803 80.2936 678.564 79.5155 675.957 79.6293C674.474 79.6941 673.253 80.0289 672.295 80.6338C671.336 81.2387 670.878 82.0485 670.923 83.0631C670.943 83.5315 671.079 83.9478 671.329 84.3122C671.579 84.661 671.857 84.946 672.164 85.1673C672.486 85.3878 672.965 85.6015 673.6 85.8084C674.234 85.9996 674.764 86.1485 675.191 86.255C675.633 86.3452 676.28 86.4733 677.131 86.6395C677.873 86.7792 678.464 86.9019 678.907 87.0077C679.364 87.0972 679.942 87.244 680.639 87.4482C681.336 87.6524 681.9 87.8623 682.332 88.0781C682.779 88.2775 683.26 88.5537 683.776 88.9065C684.292 89.2593 684.699 89.6404 684.999 90.0496C685.298 90.4588 685.555 90.9637 685.768 91.5643C685.997 92.1486 686.127 92.792 686.158 93.4945C686.261 95.8516 685.413 97.7498 683.615 99.1889C681.816 100.613 679.488 101.387 676.631 101.511ZM702.798 74.7039C705.78 74.5737 708.215 75.3745 710.105 77.1062C712.011 78.8372 713.029 81.2013 713.16 84.1984L713.819 99.3012L709.698 99.4812L709.095 85.6662C708.999 83.4808 708.275 81.7607 706.922 80.5061C705.569 79.2358 703.807 78.648 701.637 78.7427C699.374 78.8415 697.592 79.5918 696.293 80.9936C694.993 82.3954 694.392 84.1968 694.488 86.3978L695.087 100.119L690.966 100.299L689.458 65.7616L693.579 65.5817L694.188 79.5372C696.041 76.4847 698.911 74.8736 702.798 74.7039ZM732.308 73.4154C735.804 73.2628 738.777 74.3607 741.226 76.7093C743.674 79.0578 744.978 82.0507 745.136 85.6879C745.295 89.325 744.257 92.4201 742.023 94.9731C739.788 97.5262 736.923 98.879 733.426 99.0317C731.428 99.1189 729.59 98.7612 727.913 97.9586C726.235 97.1404 724.839 95.9736 723.725 94.4583L723.917 98.8603L719.796 99.0403L718.288 64.5029L722.409 64.3229L723.042 78.8169C724.02 77.2102 725.309 75.934 726.91 74.9883C728.51 74.027 730.31 73.5027 732.308 73.4154ZM732.48 95.0848C734.993 94.9751 737.048 94.0408 738.645 92.282C740.241 90.5232 740.985 88.3872 740.875 85.8739C740.765 83.3607 739.838 81.2976 738.094 79.6846C736.351 78.0717 734.222 77.32 731.709 77.4298C729.211 77.5388 727.172 78.4724 725.591 80.2305C724.01 81.9887 723.274 84.1244 723.384 86.6376C723.494 89.1508 724.413 91.2143 726.141 92.8279C727.869 94.4416 729.982 95.1939 732.48 95.0848ZM761.929 97.7872C759.494 97.8935 757.253 97.4361 755.206 96.4151C753.159 95.3784 751.523 93.9093 750.299 92.0078C749.089 90.09 748.432 87.9369 748.328 85.5485C748.223 83.1602 748.69 80.9658 749.729 78.9655C750.783 76.9489 752.285 75.3428 754.234 74.1472C756.183 72.9361 758.375 72.2773 760.811 72.171C764.495 72.0101 767.631 73.1009 770.22 75.4434C772.825 77.7851 774.206 80.7745 774.365 84.4117C774.524 88.0489 773.408 91.1474 771.017 93.7072C768.642 96.2664 765.613 97.6264 761.929 97.7872ZM761.755 93.8066C764.253 93.6976 766.292 92.764 767.873 91.0058C769.47 89.247 770.213 87.111 770.104 84.5978C769.994 82.0845 769.067 80.0214 767.323 78.4085C765.595 76.7948 763.482 76.0425 760.984 76.1516C758.471 76.2613 756.416 77.1956 754.819 78.9544C753.223 80.7132 752.479 82.8492 752.589 85.3625C752.699 87.8757 753.626 89.9388 755.37 91.5518C757.113 93.1647 759.242 93.9164 761.755 93.8066ZM798.775 71.0999L802.896 70.92L803.964 95.3654L799.843 95.5454L799.65 91.1433C798.673 92.75 797.376 94.0343 795.76 94.9964C794.159 95.9421 792.36 96.4586 790.362 96.5458C788.067 96.646 785.959 96.1828 784.037 95.1563C782.115 94.1142 780.58 92.6406 779.434 90.7357C778.302 88.8145 777.684 86.6597 777.58 84.2714C777.475 81.883 777.904 79.6904 778.864 77.6934C779.84 75.6802 781.24 74.0786 783.065 72.8884C784.889 71.6827 786.948 71.0298 789.243 70.9296C791.241 70.8424 793.079 71.2078 794.757 72.0261C796.45 72.828 797.853 73.9866 798.967 75.502L798.775 71.0999ZM790.96 92.5315C793.458 92.4224 795.497 91.4889 797.079 89.7307C798.675 87.9719 799.419 85.8359 799.309 83.3226C799.199 80.8094 798.272 78.7463 796.529 77.1333C794.8 75.5197 792.687 74.7674 790.19 74.8764C787.676 74.9862 785.621 75.9204 784.025 77.6793C782.428 79.4381 781.685 81.5741 781.794 84.0873C781.904 86.6006 782.831 88.6637 784.575 90.2766C786.319 91.8896 788.447 92.6412 790.96 92.5315ZM821.641 69.7027L822.461 69.667L822.647 73.9285L821.827 73.9643C819.252 74.0768 817.247 74.9228 815.815 76.5024C814.397 78.0657 813.745 80.1274 813.856 82.6875L814.39 94.9102L810.269 95.0901L809.202 70.6447L813.323 70.4648L813.507 74.6795C815.292 71.5205 818.004 69.8615 821.641 69.7027ZM844.897 58.975L849.018 58.7951L850.526 93.3325L846.405 93.5124L846.213 89.1103C845.235 90.717 843.938 92.0014 842.323 92.9634C840.722 93.9091 838.922 94.4256 836.924 94.5128C834.629 94.613 832.521 94.1499 830.6 93.1233C828.677 92.0812 827.143 90.6077 825.996 88.7027C824.864 86.7815 824.246 84.6267 824.142 82.2384C824.038 79.85 824.466 77.6574 825.427 75.6605C826.402 73.6473 827.803 72.0456 829.627 70.8555C831.452 69.6498 833.511 68.9968 835.806 68.8966C837.804 68.8094 839.642 69.1749 841.32 69.9931C843.013 70.795 844.416 71.9536 845.53 73.469L844.897 58.975ZM837.523 90.4985C840.021 90.3895 842.06 89.4559 843.641 87.6977C845.238 85.9389 845.981 83.8029 845.871 81.2897C845.762 78.7764 844.835 76.7133 843.091 75.1004C841.363 73.4867 839.25 72.7344 836.752 72.8435C834.239 72.9532 832.184 73.8875 830.587 75.6463C828.991 77.4051 828.247 79.5411 828.357 82.0544C828.467 84.5676 829.393 86.6307 831.137 88.2437C832.881 89.8566 835.01 90.6083 837.523 90.4985Z" fill="black"/>
<path d="M884.772 59.3063L890.004 71.3895L902.497 75.5486L890.414 80.7808L886.255 93.274L881.023 81.1908L868.53 77.0317L880.613 71.7995L884.772 59.3063Z" fill="#FD853A"/>
<path d="M959.822 55.4118L964.388 55.2125L955.272 88.7592L950.823 88.9534L941.44 62.6424L934.409 89.6701L929.961 89.8643L917.956 57.2397L922.615 57.0363L932.048 83.9551L939.264 56.3094L943.174 56.1387L952.771 83.0504L959.822 55.4118ZM970.623 58.6938C969.827 58.7286 969.152 58.5 968.599 58.008C968.045 57.5004 967.751 56.8564 967.717 56.0759C967.682 55.2798 967.919 54.6126 968.427 54.0743C968.935 53.536 969.587 53.2494 970.383 53.2147C971.164 53.1806 971.823 53.4099 972.361 53.9025C972.898 54.3952 973.184 55.0395 973.219 55.8356C973.253 56.6162 973.017 57.2834 972.509 57.8373C972.016 58.3749 971.388 58.6604 970.623 58.6938ZM969.843 88.123L968.776 63.6776L972.897 63.4976L973.964 87.9431L969.843 88.123ZM991.595 62.2824L992.414 62.2467L992.6 66.5082L991.781 66.544C989.205 66.6565 987.201 67.5025 985.769 69.0821C984.351 70.6454 983.698 72.7071 983.81 75.2672L984.344 87.4899L980.223 87.6698L979.155 63.2244L983.276 63.0444L983.46 67.2592C985.246 64.1002 987.958 62.4412 991.595 62.2824ZM1019.62 73.7037C1019.63 73.9379 1019.62 74.5484 1019.58 75.5352L998.531 76.4543C999.046 78.5901 1000.14 80.286 1001.83 81.542C1003.52 82.7817 1005.55 83.3501 1007.91 83.2471C1009.65 83.1708 1011.25 82.7338 1012.68 81.936C1014.12 81.1227 1015.22 80.1126 1016 78.9057L1018.94 81.2172C1017.78 82.9257 1016.23 84.299 1014.31 85.3371C1012.4 86.3745 1010.27 86.9443 1007.93 87.0465C1004.11 87.2135 1000.87 86.1194 998.217 83.764C995.564 81.4087 994.158 78.3969 993.998 74.7285C993.895 72.3558 994.355 70.1774 995.378 68.1933C996.417 66.193 997.896 64.5957 999.814 63.4015C1001.73 62.2073 1003.89 61.5578 1006.3 61.4528C1008.69 61.3485 1010.88 61.808 1012.88 62.8311C1014.88 63.8542 1016.48 65.325 1017.67 67.2435C1018.86 69.1464 1019.51 71.2998 1019.62 73.7037ZM1006.42 65.2481C1004.29 65.3408 1002.49 66.0843 1001 67.4787C999.513 68.8574 998.619 70.6011 998.32 72.7099L1015.16 71.9749C1014.67 69.8689 1013.63 68.2019 1012.03 66.9737C1010.43 65.7299 1008.56 65.1547 1006.42 65.2481ZM1032.58 54.0179C1029.96 54.1324 1028.7 55.4307 1028.81 57.9127L1028.95 61.0503L1036 60.7426L1036.16 64.4656L1029.11 64.7733L1030.02 85.4958L1025.9 85.6757L1024.99 64.9533L1020.54 65.1475L1020.38 61.4245L1024.83 61.2303L1024.68 57.8116C1024.58 55.4857 1025.11 53.6718 1026.27 52.3698C1027.43 51.0679 1029.19 50.3654 1031.55 50.2625C1033.1 50.195 1034.52 50.469 1035.83 51.0843L1035.99 54.7371C1034.89 54.2065 1033.75 53.9668 1032.58 54.0179ZM1052.28 59.6327L1053.1 59.5969L1053.29 63.8585L1052.47 63.8943C1049.89 64.0067 1047.89 64.8528 1046.46 66.4324C1045.04 67.9957 1044.39 70.0574 1044.5 72.6175L1045.03 84.8402L1040.91 85.0201L1039.84 60.5747L1043.96 60.3947L1044.15 64.6095C1045.93 61.4504 1048.65 59.7915 1052.28 59.6327ZM1075.98 58.9969L1080.1 58.817L1081.17 83.2625L1077.05 83.4424L1076.86 79.0403C1075.88 80.647 1074.58 81.9314 1072.96 82.8934C1071.36 83.8391 1069.56 84.3556 1067.57 84.4428C1065.27 84.543 1063.16 84.0798 1061.24 83.0533C1059.32 82.0112 1057.79 80.5376 1056.64 78.6327C1055.51 76.7115 1054.89 74.5567 1054.78 72.1684C1054.68 69.78 1055.11 67.5874 1056.07 65.5905C1057.04 63.5772 1058.44 61.9756 1060.27 60.7855C1062.09 59.5797 1064.15 58.9268 1066.45 58.8266C1068.45 58.7394 1070.28 59.1049 1071.96 59.9231C1073.65 60.725 1075.06 61.8836 1076.17 63.399L1075.98 58.9969ZM1068.17 80.4285C1070.66 80.3195 1072.7 79.3859 1074.28 77.6277C1075.88 75.8689 1076.62 73.7329 1076.51 71.2197C1076.4 68.7064 1075.48 66.6433 1073.73 65.0304C1072 63.4167 1069.89 62.6644 1067.39 62.7735C1064.88 62.8832 1062.83 63.8175 1061.23 65.5763C1059.63 67.3351 1058.89 69.4711 1059 71.9844C1059.11 74.4976 1060.04 76.5607 1061.78 78.1737C1063.52 79.7866 1065.65 80.5382 1068.17 80.4285ZM1115.58 56.6815C1118.39 56.5588 1120.67 57.3039 1122.41 58.9169C1124.17 60.5136 1125.11 62.7168 1125.23 65.5267L1125.92 81.3085L1121.8 81.4884L1121.16 66.8539C1121.08 64.9027 1120.42 63.375 1119.2 62.271C1118 61.1507 1116.42 60.6328 1114.49 60.7173C1112.49 60.8045 1110.91 61.4679 1109.74 62.7074C1108.58 63.9469 1108.04 65.5502 1108.12 67.517L1108.76 82.0579L1104.64 82.2378L1104 67.6033C1103.91 65.652 1103.26 64.1244 1102.04 63.0203C1100.83 61.9 1099.26 61.3821 1097.33 61.4666C1095.33 61.5539 1093.75 62.2173 1092.58 63.4568C1091.41 64.6963 1090.87 66.2995 1090.96 68.2664L1091.59 82.8072L1087.47 82.9872L1086.41 58.5417L1090.53 58.3618L1090.67 61.6633C1092.42 58.9909 1095.03 57.5787 1098.51 57.4268C1100.41 57.3436 1102.1 57.6925 1103.55 58.4734C1105.01 59.2543 1106.13 60.3862 1106.91 61.8691C1107.77 60.2834 1108.93 59.0439 1110.41 58.1505C1111.91 57.2563 1113.63 56.7667 1115.58 56.6815ZM1155.34 67.7779C1155.35 68.0121 1155.34 68.6226 1155.3 69.6094L1134.25 70.5285C1134.77 72.6643 1135.87 74.3602 1137.55 75.6162C1139.25 76.8558 1141.27 77.4242 1143.63 77.3213C1145.38 77.245 1146.97 76.8079 1148.41 76.0102C1149.84 75.1968 1150.95 74.1867 1151.72 72.9798L1154.66 75.2913C1153.5 76.9998 1151.96 78.3731 1150.03 79.4112C1148.12 80.4487 1146 81.0185 1143.66 81.1207C1139.83 81.2877 1136.59 80.1935 1133.94 77.8382C1131.29 75.4829 1129.88 72.4711 1129.72 68.8027C1129.62 66.4299 1130.08 64.2516 1131.1 62.2675C1132.14 60.2672 1133.62 58.6699 1135.54 57.4757C1137.46 56.2815 1139.62 55.6319 1142.02 55.527C1144.41 55.4227 1146.6 55.8821 1148.6 56.9052C1150.6 57.9284 1152.2 59.3992 1153.39 61.3177C1154.59 63.2205 1155.24 65.374 1155.34 67.7779ZM1142.14 59.3223C1140.02 59.415 1138.21 60.1585 1136.72 61.5528C1135.24 62.9315 1134.34 64.6753 1134.04 66.7841L1150.88 66.049C1150.4 63.9431 1149.35 62.2761 1147.75 61.0479C1146.15 59.8041 1144.28 59.2289 1142.14 59.3223Z" fill="black"/>
<path d="M1188.48 46.0458L1193.71 58.129L1206.21 62.2881L1194.12 67.5203L1189.97 80.0135L1184.73 67.9303L1172.24 63.7712L1184.32 58.539L1188.48 46.0458Z" fill="#FD853A"/>
<path d="M1238.5 76.9796C1235.98 77.0894 1233.67 76.6116 1231.56 75.5465C1229.47 74.4806 1227.79 72.9664 1226.53 71.0038C1225.27 69.0256 1224.59 66.7955 1224.48 64.3135L1223.59 43.8954L1227.97 43.7042L1228.85 64.0286C1228.97 66.6199 1229.92 68.7522 1231.71 70.4256C1233.52 72.0827 1235.72 72.8546 1238.31 72.7415C1240.92 72.6277 1243.05 71.6666 1244.71 69.8582C1246.36 68.0342 1247.14 65.8266 1247.02 63.2353L1246.14 42.9109L1250.49 42.7207L1251.38 63.1388C1251.49 65.6208 1251 67.902 1249.92 69.9825C1248.84 72.0473 1247.29 73.7023 1245.28 74.9474C1243.29 76.1918 1241.03 76.8692 1238.5 76.9796ZM1265.95 75.7812C1262 75.9536 1258.63 74.8181 1255.85 72.3746L1258.02 69.3006C1260.1 71.2583 1262.67 72.1707 1265.71 72.0378C1267.37 71.9656 1268.71 71.6019 1269.75 70.9467C1270.78 70.276 1271.27 69.4021 1271.23 68.325C1271.21 67.8723 1271.07 67.4715 1270.82 67.1227C1270.59 66.7576 1270.31 66.4648 1269.99 66.2443C1269.68 66.0231 1269.22 65.8165 1268.6 65.6245C1268 65.4163 1267.47 65.2674 1267.01 65.1779C1266.57 65.0721 1265.93 64.9354 1265.11 64.768C1264.36 64.6133 1263.76 64.491 1263.31 64.4008C1262.87 64.295 1262.29 64.1325 1261.58 63.9134C1260.88 63.6937 1260.31 63.4762 1259.86 63.2612C1259.43 63.0454 1258.95 62.7615 1258.42 62.4093C1257.9 62.0409 1257.49 61.6524 1257.17 61.2439C1256.87 60.819 1256.61 60.3145 1256.38 59.7302C1256.16 59.1295 1256.04 58.4702 1256.01 57.7521C1255.94 56.2223 1256.32 54.8842 1257.15 53.7377C1257.97 52.5912 1259.07 51.7301 1260.44 51.1543C1261.8 50.5629 1263.34 50.2297 1265.06 50.1547C1268.59 50.0007 1271.63 50.9863 1274.18 53.1116L1271.99 56.2333C1270.12 54.5634 1267.88 53.7853 1265.27 53.8991C1263.79 53.9639 1262.57 54.2987 1261.61 54.9036C1260.65 55.5085 1260.19 56.3183 1260.24 57.3329C1260.26 57.8012 1260.39 58.2176 1260.64 58.582C1260.89 58.9308 1261.17 59.2158 1261.48 59.437C1261.8 59.6576 1262.28 59.8713 1262.91 60.0782C1263.55 60.2694 1264.08 60.4183 1264.51 60.5248C1264.95 60.615 1265.59 60.7431 1266.45 60.9093C1267.19 61.0489 1267.78 61.1717 1268.22 61.2775C1268.68 61.367 1269.26 61.5138 1269.95 61.718C1270.65 61.9221 1271.22 62.1321 1271.65 62.3479C1272.09 62.5473 1272.57 62.8235 1273.09 63.1763C1273.61 63.5291 1274.01 63.9101 1274.31 64.3194C1274.61 64.7286 1274.87 65.2335 1275.08 65.8341C1275.31 66.4184 1275.44 67.0618 1275.47 67.7643C1275.58 70.1214 1274.73 72.0195 1272.93 73.4587C1271.13 74.8823 1268.8 75.6565 1265.95 75.7812ZM1303.77 61.2972C1303.78 61.5313 1303.77 62.1418 1303.73 63.1287L1282.68 64.0478C1283.2 66.1835 1284.3 67.8794 1285.98 69.1354C1287.67 70.3751 1289.7 70.9435 1292.06 70.8406C1293.81 70.7642 1295.4 70.3272 1296.83 69.5295C1298.27 68.7161 1299.37 67.706 1300.15 66.4991L1303.09 68.8106C1301.93 70.5191 1300.39 71.8924 1298.46 72.9305C1296.55 73.9679 1294.43 74.5377 1292.08 74.64C1288.26 74.807 1285.02 73.7128 1282.37 71.3575C1279.72 69.0022 1278.31 65.9903 1278.15 62.322C1278.05 59.9492 1278.51 57.7708 1279.53 55.7868C1280.57 53.7864 1282.05 52.1892 1283.97 50.995C1285.89 49.8008 1288.05 49.1512 1290.45 49.0462C1292.84 48.942 1295.03 49.4014 1297.03 50.4245C1299.03 51.4476 1300.63 52.9184 1301.82 54.8369C1303.02 56.7398 1303.67 58.8932 1303.77 61.2972ZM1290.57 52.8415C1288.45 52.9342 1286.64 53.6778 1285.15 55.0721C1283.67 56.4508 1282.77 58.1946 1282.47 60.3034L1299.31 59.5683C1298.83 57.4624 1297.78 55.7953 1296.18 54.5672C1294.58 53.3234 1292.71 52.7482 1290.57 52.8415ZM1320.25 47.9329L1321.07 47.8971L1321.25 52.1587L1320.44 52.1944C1317.86 52.3069 1315.86 53.1529 1314.42 54.7325C1313.01 56.2959 1312.35 58.3576 1312.46 60.9176L1313 73.1403L1308.88 73.3203L1307.81 48.8748L1311.93 48.6949L1312.11 52.9096C1313.9 49.7506 1316.61 48.0917 1320.25 47.9329ZM1356.54 71.2393L1346.09 58.5348L1341.24 58.7464L1341.81 71.8823L1337.41 72.0745L1335.97 38.9888L1349.38 38.403C1352.32 38.2749 1354.81 39.1279 1356.86 40.9621C1358.93 42.7956 1360.02 45.1485 1360.15 48.0207C1360.26 50.6901 1359.47 52.9924 1357.78 54.9277C1356.09 56.8467 1353.9 57.9588 1351.21 58.264L1361.86 71.0072L1356.54 71.2393ZM1340.55 42.9177L1341.07 54.9063L1349.99 54.5168C1351.68 54.4432 1353.06 53.8121 1354.13 52.6235C1355.21 51.4348 1355.71 49.982 1355.63 48.2649C1355.56 46.5478 1354.93 45.144 1353.76 44.0535C1352.58 42.963 1351.15 42.4546 1349.47 42.5282L1340.55 42.9177ZM1388.93 57.5788C1388.94 57.813 1388.93 58.4235 1388.9 59.4103L1367.85 60.3294C1368.36 62.4652 1369.46 64.1611 1371.14 65.4171C1372.84 66.6568 1374.87 67.2252 1377.22 67.1222C1378.97 67.0459 1380.56 66.6089 1382 65.8111C1383.43 64.9978 1384.54 63.9877 1385.31 62.7808L1388.25 65.0923C1387.09 66.8008 1385.55 68.1741 1383.62 69.2122C1381.71 70.2496 1379.59 70.8194 1377.25 70.9216C1373.42 71.0886 1370.19 69.9945 1367.53 67.6391C1364.88 65.2838 1363.47 62.272 1363.31 58.6036C1363.21 56.2309 1363.67 54.0525 1364.69 52.0684C1365.73 50.0681 1367.21 48.4708 1369.13 47.2766C1371.05 46.0824 1373.21 45.4329 1375.61 45.3279C1378 45.2236 1380.2 45.6831 1382.2 46.7062C1384.2 47.7293 1385.79 49.2001 1386.99 51.1186C1388.18 53.0215 1388.83 55.1749 1388.93 57.5788ZM1375.73 49.1232C1373.61 49.2159 1371.8 49.9594 1370.32 51.3538C1368.83 52.7325 1367.94 54.4762 1367.64 56.585L1384.47 55.85C1383.99 53.744 1382.95 52.077 1381.34 50.8488C1379.74 49.605 1377.87 49.0298 1375.73 49.1232ZM1402.07 69.8377C1398.13 70.0101 1394.76 68.8746 1391.98 66.4311L1394.14 63.3571C1396.23 65.3148 1398.8 66.2272 1401.84 66.0943C1403.5 66.0221 1404.84 65.6584 1405.88 65.0032C1406.91 64.3325 1407.4 63.4586 1407.36 62.3815C1407.34 61.9288 1407.2 61.528 1406.95 61.1792C1406.72 60.8141 1406.44 60.5213 1406.12 60.3008C1405.81 60.0796 1405.35 59.873 1404.73 59.681C1404.12 59.4728 1403.59 59.3239 1403.14 59.2344C1402.69 59.1286 1402.06 58.992 1401.24 58.8245C1400.48 58.6699 1399.88 58.5475 1399.44 58.4573C1399 58.3515 1398.42 58.189 1397.71 57.9699C1397.01 57.7502 1396.44 57.5327 1395.99 57.3177C1395.56 57.1019 1395.08 56.818 1394.55 56.4658C1394.03 56.0974 1393.61 55.7089 1393.3 55.3004C1393 54.8756 1392.73 54.371 1392.51 53.7867C1392.29 53.186 1392.17 52.5267 1392.14 51.8086C1392.07 50.2788 1392.45 48.9407 1393.28 47.7942C1394.1 46.6477 1395.2 45.7866 1396.57 45.2108C1397.93 44.6194 1399.47 44.2862 1401.19 44.2112C1404.72 44.0572 1407.76 45.0428 1410.3 47.1681L1408.12 50.2898C1406.25 48.6199 1404.01 47.8418 1401.4 47.9556C1399.92 48.0204 1398.7 48.3552 1397.74 48.9601C1396.78 49.565 1396.32 50.3748 1396.37 51.3894C1396.39 51.8577 1396.52 52.2741 1396.77 52.6385C1397.02 52.9873 1397.3 53.2723 1397.61 53.4935C1397.93 53.7141 1398.41 53.9278 1399.04 54.1347C1399.68 54.3259 1400.21 54.4748 1400.63 54.5813C1401.08 54.6715 1401.72 54.7996 1402.57 54.9658C1403.32 55.1054 1403.91 55.2282 1404.35 55.334C1404.81 55.4235 1405.38 55.5703 1406.08 55.7745C1406.78 55.9787 1407.34 56.1886 1407.78 56.4044C1408.22 56.6038 1408.7 56.88 1409.22 57.2328C1409.73 57.5856 1410.14 57.9666 1410.44 58.3759C1410.74 58.7851 1411 59.29 1411.21 59.8906C1411.44 60.4749 1411.57 61.1183 1411.6 61.8208C1411.7 64.1779 1410.86 66.076 1409.06 67.5152C1407.26 68.9388 1404.93 69.713 1402.07 69.8377ZM1439.9 55.3537C1439.91 55.5878 1439.9 56.1983 1439.86 57.1852L1418.81 58.1043C1419.33 60.2401 1420.43 61.9359 1422.11 63.1919C1423.8 64.4316 1425.83 65 1428.19 64.8971C1429.94 64.8207 1431.53 64.3837 1432.96 63.586C1434.4 62.7726 1435.5 61.7625 1436.28 60.5556L1439.22 62.8671C1438.06 64.5756 1436.51 65.9489 1434.59 66.987C1432.68 68.0244 1430.55 68.5942 1428.21 68.6965C1424.39 68.8635 1421.15 67.7693 1418.5 65.414C1415.85 63.0587 1414.44 60.0468 1414.28 56.3785C1414.18 54.0057 1414.64 51.8273 1415.66 49.8433C1416.7 47.8429 1418.18 46.2457 1420.1 45.0515C1422.01 43.8573 1424.17 43.2077 1426.58 43.1027C1428.97 42.9985 1431.16 43.4579 1433.16 44.481C1435.16 45.5041 1436.76 46.9749 1437.95 48.8934C1439.15 50.7963 1439.79 52.9497 1439.9 55.3537ZM1426.7 46.8981C1424.57 46.9907 1422.77 47.7343 1421.28 49.1286C1419.79 50.5073 1418.9 52.2511 1418.6 54.3599L1435.44 53.6248C1434.95 51.5189 1433.91 49.8518 1432.31 48.6237C1430.71 47.3799 1428.84 46.8047 1426.7 46.8981ZM1464.17 42.048L1468.29 41.8681L1469.36 66.3136L1465.24 66.4935L1465.04 62.0914C1464.07 63.6981 1462.77 64.9825 1461.15 65.9445C1459.55 66.8902 1457.75 67.4067 1455.76 67.4939C1453.46 67.5941 1451.35 67.1309 1449.43 66.1044C1447.51 65.0623 1445.97 63.5887 1444.83 61.6838C1443.7 59.7626 1443.08 57.6078 1442.97 55.2195C1442.87 52.8311 1443.3 50.6385 1444.26 48.6416C1445.23 46.6283 1446.63 45.0267 1448.46 43.8366C1450.28 42.6308 1452.34 41.9779 1454.64 41.8777C1456.63 41.7905 1458.47 42.156 1460.15 42.9742C1461.84 43.7761 1463.25 44.9347 1464.36 46.4501L1464.17 42.048ZM1456.35 63.4796C1458.85 63.3706 1460.89 62.437 1462.47 60.6788C1464.07 58.92 1464.81 56.784 1464.7 54.2708C1464.59 51.7575 1463.67 49.6944 1461.92 48.0815C1460.19 46.4678 1458.08 45.7155 1455.58 45.8246C1453.07 45.9343 1451.02 46.8686 1449.42 48.6274C1447.82 50.3862 1447.08 52.5222 1447.19 55.0355C1447.3 57.5487 1448.22 59.6118 1449.97 61.2248C1451.71 62.8377 1453.84 63.5893 1456.35 63.4796ZM1487.03 40.6509L1487.85 40.6151L1488.04 44.8766L1487.22 44.9124C1484.65 45.0249 1482.64 45.8709 1481.21 47.4505C1479.79 49.0138 1479.14 51.0755 1479.25 53.6356L1479.78 65.8583L1475.66 66.0383L1474.6 41.5928L1478.72 41.4129L1478.9 45.6276C1480.69 42.4686 1483.4 40.8097 1487.03 40.6509ZM1503.04 65.4293C1500.61 65.5356 1498.37 65.0782 1496.32 64.0571C1494.27 63.0204 1492.64 61.5513 1491.41 59.6498C1490.2 57.732 1489.55 55.579 1489.44 53.1906C1489.34 50.8023 1489.81 48.6079 1490.84 46.6076C1491.9 44.5909 1493.4 42.9848 1495.35 41.7893C1497.3 40.5781 1499.49 39.9194 1501.93 39.8131C1504.33 39.7081 1506.54 40.1668 1508.55 41.1893C1510.57 42.1961 1512.17 43.6197 1513.36 45.4602L1509.87 47.7708C1509.07 46.4767 1507.97 45.4764 1506.6 44.7702C1505.22 44.0483 1503.72 43.7228 1502.1 43.7936C1499.59 43.9034 1497.53 44.8376 1495.93 46.5965C1494.34 48.3553 1493.59 50.4913 1493.7 53.0045C1493.81 55.5178 1494.74 57.5809 1496.48 59.1938C1498.23 60.8068 1500.36 61.5584 1502.87 61.4487C1504.49 61.3778 1505.96 60.9228 1507.27 60.0837C1508.58 59.2446 1509.58 58.1452 1510.27 56.7856L1513.94 58.7834C1512.92 60.7363 1511.44 62.3101 1509.5 63.505C1507.59 64.6836 1505.43 65.325 1503.04 65.4293ZM1530.31 38.5737C1533.29 38.4435 1535.73 39.2443 1537.62 40.976C1539.52 42.707 1540.54 45.0711 1540.67 48.0683L1541.33 63.1711L1537.21 63.351L1536.61 49.536C1536.51 47.3506 1535.79 45.6306 1534.44 44.3759C1533.08 43.1056 1531.32 42.5178 1529.15 42.6126C1526.89 42.7114 1525.11 43.4617 1523.81 44.8634C1522.51 46.2652 1521.9 48.0666 1522 50.2676L1522.6 63.9889L1518.48 64.1689L1516.97 29.6315L1521.09 29.4515L1521.7 43.407C1523.55 40.3545 1526.42 38.7434 1530.31 38.5737Z" fill="black"/>
</g>
<defs>
<clipPath id="clip0_1_700">
<path d="M0 24C0 10.7452 10.7452 0 24 0H1440V123C1440 136.255 1429.25 147 1416 147H0V24Z" fill="white"/>
</clipPath>
</defs>
</svg>
